# xmcd
#
# Track frame offsets:
#	150
#	18138
#	47036
#
# Disc length: 1396 seconds
#
# Revision: 1
# Processed by: cddbd v1.4PL0 Copyright (c) Steve Scherf et al.
# Submitted via: audiograbber 1.82.01
#
DISCID=18057203
DTITLE=Solomon Burke - Soul Searching
DYEAR=2003
DGENRE=Blues
TTITLE0=Soul Searching
TTITLE1=Diamond in your Head
TTITLE2=None of us are free (Video)
EXTD=
EXTT0=
EXTT1=
EXTT2=
PLAYORDER=
